<?xml version="1.0" standalone="no"?>
<!DOCTYPE svg PUBLIC "-//W3C//DTD SVG 20010904//EN"
 "http://www.w3.org/TR/2001/REC-SVG-20010904/DTD/svg10.dtd">
<svg version="1.0" xmlns="http://www.w3.org/2000/svg"
 width="1024.000000pt" height="1024.000000pt" viewBox="0 0 1024.000000 1024.000000"
 preserveAspectRatio="xMidYMid meet">

<g transform="translate(0.000000,1024.000000) scale(0.100000,-0.100000)"
fill="#000000" stroke="none">
<path d="M5445 9509 c-22 -11 -73 -34 -114 -52 l-73 -33 40 -27 c107 -70 276
-223 652 -587 447 -433 532 -509 825 -740 l127 -101 -70 -31 -69 -31 20 -23
c11 -13 25 -24 30 -24 5 0 15 -6 21 -14 6 -8 67 -60 136 -117 574 -472 1039
-982 1415 -1554 149 -226 236 -378 360 -630 268 -545 424 -1081 475 -1635 14
-146 14 -543 0 -680 -61 -607 -264 -1130 -606 -1560 -160 -201 -421 -430 -654
-575 -116 -72 -360 -190 -494 -240 -337 -125 -727 -182 -1071 -157 -576 42
-1115 262 -1610 658 -151 121 -449 421 -577 582 -340 427 -597 908 -783 1467
-161 483 -256 954 -295 1460 -5 77 -12 163 -15 190 -6 69 -5 698 2 815 3 52 6
127 8 166 1 39 5 75 7 80 3 5 5 32 4 61 0 28 2 49 7 46 4 -2 7 0 7 6 0 5 -6
12 -12 14 -9 4 -9 6 -1 6 6 1 9 10 6 20 -5 18 -9 18 -80 -14 l-74 -35 5 28
c19 88 53 409 66 617 5 88 12 378 15 645 6 570 12 779 24 875 6 38 8 71 6 73
-8 9 -235 -102 -239 -117 -11 -33 -26 -528 -26 -841 0 -298 -10 -563 -26 -748
l-7 -72 -87 -99 c-226 -255 -416 -505 -662 -870 -292 -431 -469 -657 -849
-1081 -515 -575 -676 -794 -795 -1077 -88 -211 -120 -381 -111 -597 10 -238
62 -427 187 -681 271 -555 665 -822 1299 -885 152 -15 571 -12 941 6 334 17
1064 14 1193 -4 54 -8 62 -13 130 -79 570 -556 1283 -893 2040 -964 181 -17
562 -6 739 20 806 120 1567 517 2079 1084 456 505 725 1101 820 1812 24 185
35 562 21 734 l-10 125 39 125 c47 152 84 311 111 486 29 189 36 596 13 795
-48 420 -159 789 -355 1180 -434 867 -1172 1471 -2090 1711 -236 61 -541 105
-770 110 l-104 3 -76 66 c-79 70 -247 229 -490 464 -168 163 -356 336 -364
336 -2 0 -18 14 -36 30 -23 22 -36 27 -45 20 -13 -11 -25 -4 -25 14 0 6 5 4
10 -4 5 -8 10 -10 10 -5 0 11 -21 31 -60 56 -23 15 -28 15 -65 -2z m84 -31
c-1 -1 3 -14 10 -27 7 -13 8 -21 3 -17 -6 3 -12 1 -14 -6 -3 -7 -7 -5 -11 6
-4 10 -3 15 3 11 7 -4 9 4 6 20 -3 15 -3 25 0 22 3 -3 5 -7 3 -9z"/>
<path d="M5500 6240 c-267 -25 -513 -211 -679 -515 -264 -483 -298 -1204 -82
-1747 108 -272 261 -498 477 -708 426 -413 967 -590 1433 -469 190 50 405 183
581 359 173 172 291 362 365 584 52 156 66 236 72 416 4 140 2 184 -16 288
-65 380 -253 706 -607 1052 -505 493 -1105 781 -1544 740z m276 -1032 c27 -15
56 -33 63 -42 7 -9 17 -13 22 -10 5 3 8 0 7 -8 -2 -7 3 -12 10 -10 8 1 11 -2
8 -7 -4 -5 -2 -12 4 -16 6 -4 22 -30 37 -58 22 -42 28 -68 30 -132 2 -89 -4
-128 -20 -118 -6 3 -7 1 -3 -5 7 -12 -20 -72 -38 -84 -6 -4 -7 -8 -3 -8 5 0
-13 -20 -38 -45 -25 -25 -50 -43 -54 -40 -5 3 -12 -2 -15 -11 -4 -9 -9 -14
-13 -11 -3 4 -15 1 -27 -5 -11 -7 -28 -13 -36 -13 -8 0 -19 -3 -25 -6 -16 -9
-160 1 -160 11 0 1 -9 3 -20 5 -11 2 -21 9 -23 15 -2 5 -8 8 -13 4 -5 -3 -9 0
-9 6 0 6 -4 9 -9 5 -5 -3 -17 5 -25 17 -9 12 -16 19 -16 15 0 -4 -9 1 -20 10
-11 10 -20 23 -20 30 0 7 -4 13 -10 13 -14 0 -52 80 -46 96 4 10 2 12 -6 8 -7
-5 -9 1 -6 19 3 15 2 24 -3 22 -4 -3 -9 22 -11 54 -1 33 0 57 5 54 4 -2 7 6 7
17 0 27 44 117 73 149 27 29 97 81 109 81 5 0 6 -6 2 -12 -4 -8 -3 -10 2 -5 5
5 9 13 9 19 0 6 11 13 24 15 14 2 27 6 30 9 3 3 44 4 91 2 66 -4 96 -10 136
-30z"/>
</g>
</svg>
